<mxfile host="app.diagrams.net" modified="2024-04-10T17:10:24.795Z" agent="Mozilla/5.0 (Windows NT 10.0; Win64; x64) AppleWebKit/537.36 (KHTML, like Gecko) Chrome/123.0.0.0 Safari/537.36 OPR/109.0.0.0" version="24.2.2" etag="t43Zq4NaEG_e2D_6O_CE" type="github">
  <diagram name="Страница — 1" id="iXLhNjQU6RTocYc2TxfD">
    <mxGraphModel>
      <root>
        <mxCell id="0" />
        <mxCell id="1" parent="0" />
      </root>
    </mxGraphModel>
  </diagram>
</mxfile>
